<?xml version="1.0" encoding="UTF-8" standalone="no"?>
<!-- Created with Inkscape (http://www.inkscape.org/) -->

<svg
   version="1.1"
   id="svg1"
   width="656.77466"
   height="557.97198"
   viewBox="0 0 656.77466 557.97198"
   sodipodi:docname="MyHomeTech - Logo.ai"
   xmlns:inkscape="http://www.inkscape.org/namespaces/inkscape"
   xmlns:sodipodi="http://sodipodi.sourceforge.net/DTD/sodipodi-0.dtd"
   xmlns="http://www.w3.org/2000/svg"
   xmlns:svg="http://www.w3.org/2000/svg">
  <defs
     id="defs1">
    <clipPath
       clipPathUnits="userSpaceOnUse"
       id="clipPath2">
      <path
         d="M 0,418.479 H 492.581 V 0 H 0 Z"
         transform="translate(-253.72291,-158.0643)"
         id="path2" />
    </clipPath>
    <clipPath
       clipPathUnits="userSpaceOnUse"
       id="clipPath4">
      <path
         d="M 0,418.479 H 492.581 V 0 H 0 Z"
         transform="translate(-140.36031,-228.178)"
         id="path4" />
    </clipPath>
    <clipPath
       clipPathUnits="userSpaceOnUse"
       id="clipPath6">
      <path
         d="M 0,418.479 H 492.581 V 0 H 0 Z"
         transform="translate(-230.66131,-114.2215)"
         id="path6" />
    </clipPath>
    <clipPath
       clipPathUnits="userSpaceOnUse"
       id="clipPath8">
      <path
         d="M 0,418.479 H 492.581 V 0 H 0 Z"
         transform="translate(-254.2672,-246.0595)"
         id="path8" />
    </clipPath>
    <clipPath
       clipPathUnits="userSpaceOnUse"
       id="clipPath10">
      <path
         d="M 0,418.479 H 492.581 V 0 H 0 Z"
         transform="translate(-224.4613,-175.7224)"
         id="path10" />
    </clipPath>
    <clipPath
       clipPathUnits="userSpaceOnUse"
       id="clipPath12">
      <path
         d="M 0,418.479 H 492.581 V 0 H 0 Z"
         transform="translate(-156.11781,-129.93441)"
         id="path12" />
    </clipPath>
    <clipPath
       clipPathUnits="userSpaceOnUse"
       id="clipPath14">
      <path
         d="M 0,418.479 H 492.581 V 0 H 0 Z"
         transform="translate(-140.36031,-228.178)"
         id="path14" />
    </clipPath>
    <clipPath
       clipPathUnits="userSpaceOnUse"
       id="clipPath16">
      <path
         d="M 0,418.479 H 492.581 V 0 H 0 Z"
         transform="translate(-342.51571,-116.03541)"
         id="path16" />
    </clipPath>
    <clipPath
       clipPathUnits="userSpaceOnUse"
       id="clipPath18">
      <path
         d="M 0,418.479 H 492.581 V 0 H 0 Z"
         transform="translate(-230.66131,-114.2215)"
         id="path18" />
    </clipPath>
    <clipPath
       clipPathUnits="userSpaceOnUse"
       id="clipPath20">
      <path
         d="M 0,418.479 H 492.581 V 0 H 0 Z"
         transform="translate(-232.0183,-128.1729)"
         id="path20" />
    </clipPath>
    <clipPath
       clipPathUnits="userSpaceOnUse"
       id="clipPath22">
      <path
         d="M 0,418.479 H 492.581 V 0 H 0 Z"
         transform="translate(-330.06741,-128.19141)"
         id="path22" />
    </clipPath>
    <clipPath
       clipPathUnits="userSpaceOnUse"
       id="clipPath24">
      <path
         d="M 0,418.479 H 492.581 V 0 H 0 Z"
         transform="translate(-256.141,-160.3833)"
         id="path24" />
    </clipPath>
    <clipPath
       clipPathUnits="userSpaceOnUse"
       id="clipPath26">
      <path
         d="M 0,418.479 H 492.581 V 0 H 0 Z"
         transform="translate(-330.06741,-128.19141)"
         id="path26" />
    </clipPath>
    <clipPath
       clipPathUnits="userSpaceOnUse"
       id="clipPath28">
      <path
         d="M 0,418.479 H 492.581 V 0 H 0 Z"
         transform="translate(-346.50771,-163.70931)"
         id="path28" />
    </clipPath>
    <clipPath
       clipPathUnits="userSpaceOnUse"
       id="clipPath30">
      <path
         d="M 0,418.479 H 492.581 V 0 H 0 Z"
         transform="translate(-284.61591,-221.12391)"
         id="path30" />
    </clipPath>
    <clipPath
       clipPathUnits="userSpaceOnUse"
       id="clipPath32">
      <path
         d="M 0,418.479 H 492.581 V 0 H 0 Z"
         transform="translate(-254.2672,-246.0595)"
         id="path32" />
    </clipPath>
    <clipPath
       clipPathUnits="userSpaceOnUse"
       id="clipPath34">
      <path
         d="M 0,418.479 H 492.581 V 0 H 0 Z"
         transform="translate(-253.3861,-198.0864)"
         id="path34" />
    </clipPath>
    <clipPath
       clipPathUnits="userSpaceOnUse"
       id="clipPath36">
      <path
         d="M 0,418.479 H 492.581 V 0 H 0 Z"
         transform="translate(-276.90631,-209.20471)"
         id="path36" />
    </clipPath>
    <clipPath
       clipPathUnits="userSpaceOnUse"
       id="clipPath38">
      <path
         d="M 0,418.479 H 492.581 V 0 H 0 Z"
         transform="translate(-253.69381,-186.9846)"
         id="path38" />
    </clipPath>
    <clipPath
       clipPathUnits="userSpaceOnUse"
       id="clipPath40">
      <path
         d="M 0,418.479 H 492.581 V 0 H 0 Z"
         transform="translate(-284.0101,-220.43301)"
         id="path40" />
    </clipPath>
    <clipPath
       clipPathUnits="userSpaceOnUse"
       id="clipPath42">
      <path
         d="M 0,418.479 H 492.581 V 0 H 0 Z"
         transform="translate(-276.052,-246.88141)"
         id="path42" />
    </clipPath>
    <clipPath
       clipPathUnits="userSpaceOnUse"
       id="clipPath44">
      <path
         d="M 0,418.479 H 492.581 V 0 H 0 Z"
         transform="translate(-253.65651,-192.1462)"
         id="path44" />
    </clipPath>
    <clipPath
       clipPathUnits="userSpaceOnUse"
       id="clipPath46">
      <path
         d="M 0,418.479 H 492.581 V 0 H 0 Z"
         transform="translate(-275.8771,-204.63441)"
         id="path46" />
    </clipPath>
    <clipPath
       clipPathUnits="userSpaceOnUse"
       id="clipPath48">
      <path
         d="M 0,418.479 H 492.581 V 0 H 0 Z"
         transform="translate(-253.65241,-194.43771)"
         id="path48" />
    </clipPath>
    <clipPath
       clipPathUnits="userSpaceOnUse"
       id="clipPath50">
      <path
         d="M 0,418.479 H 492.581 V 0 H 0 Z"
         transform="translate(-346.00671,-120.732)"
         id="path50" />
    </clipPath>
    <clipPath
       clipPathUnits="userSpaceOnUse"
       id="clipPath52">
      <path
         d="M 0,418.479 H 492.581 V 0 H 0 Z"
         transform="translate(-275.30221,-203.41681)"
         id="path52" />
    </clipPath>
    <clipPath
       clipPathUnits="userSpaceOnUse"
       id="clipPath54">
      <path
         d="M 0,418.479 H 492.581 V 0 H 0 Z"
         transform="translate(-294.0463,-128.17911)"
         id="path54" />
    </clipPath>
    <clipPath
       clipPathUnits="userSpaceOnUse"
       id="clipPath56">
      <path
         d="M 0,418.479 H 492.581 V 0 H 0 Z"
         transform="translate(-344.30171,-118.674)"
         id="path56" />
    </clipPath>
    <clipPath
       clipPathUnits="userSpaceOnUse"
       id="clipPath58">
      <path
         d="M 0,418.479 H 492.581 V 0 H 0 Z"
         transform="translate(-253.72291,-158.0643)"
         id="path58" />
    </clipPath>
    <clipPath
       clipPathUnits="userSpaceOnUse"
       id="clipPath60">
      <path
         d="M 0,418.479 H 492.581 V 0 H 0 Z"
         transform="translate(-255.34021,-159.663)"
         id="path60" />
    </clipPath>
    <clipPath
       clipPathUnits="userSpaceOnUse"
       id="clipPath62">
      <path
         d="M 0,418.479 H 492.581 V 0 H 0 Z"
         transform="translate(-254.5843,-158.9166)"
         id="path62" />
    </clipPath>
    <clipPath
       clipPathUnits="userSpaceOnUse"
       id="clipPath64">
      <path
         d="M 0,418.479 H 492.581 V 0 H 0 Z"
         transform="translate(-343.92451,-117.3249)"
         id="path64" />
    </clipPath>
    <clipPath
       clipPathUnits="userSpaceOnUse"
       id="clipPath66">
      <path
         d="M 0,418.479 H 492.581 V 0 H 0 Z"
         transform="translate(-343.15261,-116.5728)"
         id="path66" />
    </clipPath>
    <clipPath
       clipPathUnits="userSpaceOnUse"
       id="clipPath68">
      <path
         d="M 0,418.479 H 492.581 V 0 H 0 Z"
         transform="translate(-342.80351,-117.1672)"
         id="path68" />
    </clipPath>
  </defs>
  <sodipodi:namedview
     id="namedview1"
     pagecolor="#ffffff"
     bordercolor="#000000"
     borderopacity="0.25"
     inkscape:showpageshadow="2"
     inkscape:pageopacity="0.0"
     inkscape:pagecheckerboard="0"
     inkscape:deskcolor="#d1d1d1">
    <inkscape:page
       x="0"
       y="0"
       inkscape:label="1"
       id="page1"
       width="656.77466"
       height="557.97198"
       margin="140.79333 164.26401 108.27866"
       bleed="0" />
  </sodipodi:namedview>
  <g
     id="layer-MC0"
     inkscape:groupmode="layer"
     inkscape:label="Layer 1">
    <path
       id="path1"
       d="m 0,0 c -6.311,-6.11 -12.622,-12.22 -18.934,-18.33 -1.158,-0.569 -2.351,-1.077 -3.466,-1.722 -1.554,-0.9 -3.04,-2.718 -4.572,-2.736 -17.092,-0.198 -34.188,-0.173 -51.28,0.002 -0.984,0.01 -2.71,1.787 -2.777,2.827 -0.181,2.81 0.427,5.662 0.582,8.505 0.918,16.846 8.716,29.191 23.263,37.921 5.557,3.335 9.368,3.13 14.261,-0.702 4.135,-3.238 9.077,-5.444 13.661,-8.107 0.195,0.034 0.387,0.023 0.577,-0.034 0.341,-0.453 0.682,-0.906 1.023,-1.359 0.404,0.37 1.167,0.761 1.147,1.106 -0.064,1.088 -0.111,2.393 -0.717,3.196 -3.282,4.346 -6.3,9.03 -10.246,12.695 -3.753,3.487 -3.988,6.559 -2.365,11.081 2.58,7.19 3.219,14.542 -1.625,21.335 -4.164,5.841 -6.682,12.181 -6.032,19.554 0.114,1.284 -0.717,2.624 -0.901,3.967 -0.341,2.479 -1.106,5.086 -0.673,7.453 1.751,9.558 6.9,17.317 14.051,23.676 11.054,9.829 24.185,12.652 38.282,9.366 10.671,-2.488 18.294,-9.432 22.323,-19.782 0.958,-2.461 2.242,-3.012 4.678,-3.13 5.066,-0.246 10.138,-0.762 15.15,-1.541 2.729,-0.424 4.555,-2.296 3.858,-5.373 C 48.649,97.138 46.637,96.332 43.92,96.299 30.079,96.133 16.239,95.813 2.397,95.611 0.5,95.583 -1.294,95.489 -1.502,93.188 -1.68,91.219 -2.566,88.755 0.544,87.995 c 0.858,-0.399 1.712,-1.121 2.575,-1.132 1.942,-0.026 3.886,0.417 5.834,0.461 5.541,0.125 11.083,0.147 16.625,0.209 0,0 -0.041,0.041 -0.041,0.04 0.211,-1.571 0.299,-3.171 0.654,-4.709 1.525,-6.611 3.128,-13.205 4.702,-19.804 l -0.284,0.029 c 0,0 0.281,-0.053 0.28,-0.052 -2.352,-0.143 -4.705,-0.287 -7.057,-0.43 -0.216,-3.822 -0.432,-7.645 -0.649,-11.467 -0.042,-0.427 -0.084,-0.855 -0.127,-1.282 -0.3,-1.096 -0.601,-2.192 -0.902,-3.288 0,0 -0.105,-0.287 -0.106,-0.287 C 21.637,45.966 21.226,45.649 20.814,45.332 18.153,43.878 15.637,41.864 12.79,41.125 9.87,40.368 6.624,40.926 3.527,40.77 2.23,40.705 0.951,40.282 -0.336,40.023 -0.51,38.715 -0.685,37.406 -0.86,36.097 c 0.037,-0.599 0.075,-1.199 0.112,-1.798 -0.899,-1.945 -2.353,-3.964 0.719,-5.379 0,0 0.038,0.11 0.038,0.11 0.83,-0.863 1.525,-1.946 2.512,-2.552 4.66,-2.86 9.399,-5.589 14.755,-8.744 C 12.722,13.544 8.928,10.197 5.324,6.656 4.108,5.462 3.373,3.779 2.418,2.319 2.418,2.319 2.356,2.266 2.355,2.266 2.109,2.044 1.863,1.821 1.617,1.599 L 1.44,1.759 c 0,0 0.151,-0.185 0.151,-0.185 C 1.347,1.333 1.104,1.093 0.861,0.852 L 0.662,1.121 c 0,0 0.188,-0.276 0.187,-0.276 C 0.566,0.564 0.283,0.282 0,0"
       style="fill:#062c4c;fill-opacity:1;fill-rule:nonzero;stroke:none"
       transform="matrix(1.3333333,0,0,-1.3333333,338.2972,347.2196)"
       clip-path="url(#clipPath2)" />
    <path
       id="path3"
       d="m 0,0 c -1.187,-0.086 -2.626,0.232 -3.517,-0.326 -4.404,-2.753 -8.977,-2.254 -12.012,1.57 -2.76,3.477 -2,7.694 2.107,11.12 36.653,30.577 73.317,61.143 109.982,91.705 4.038,3.366 8.322,6.33 13.925,4.425 2.175,-0.739 4.293,-2.037 6.059,-3.527 21.392,-18.051 42.677,-36.229 64.067,-54.282 14.608,-12.329 29.424,-24.414 43.918,-36.873 2.135,-1.835 3.615,-4.997 4.293,-7.811 0.758,-3.148 -0.655,-6.219 -3.769,-7.896 -3.081,-1.66 -6.16,-1.087 -8.804,0.949 -4.849,3.733 -9.612,7.585 -14.301,11.519 -30.341,25.461 -60.651,50.96 -90.976,76.441 -4.63,3.89 -5.234,3.907 -9.831,0.083 C 73.378,64.005 45.624,40.901 17.875,17.793 c -0.766,-0.637 -1.449,-1.373 -2.17,-2.062 -0.502,-0.964 -1.44,-1.926 -1.442,-2.891 -0.075,-36.082 -0.074,-72.163 0.004,-108.245 0.002,-0.947 0.972,-1.892 1.49,-2.839 0.483,-0.499 0.966,-0.998 1.448,-1.498 1.339,-0.506 2.675,-1.448 4.016,-1.454 23.241,-0.111 46.484,-0.106 69.726,-0.126 -1.432,-4.149 -2.33,-8.326 -0.646,-12.634 -24.95,-0.026 -49.902,-0.193 -74.848,0.1 -3.147,0.037 -6.438,2.2 -9.335,3.927 -1.875,1.117 -3.155,3.233 -4.702,4.902 -0.308,1.221 -0.616,2.441 -0.924,3.662 0.32,1.009 0.918,2.018 0.919,3.028 0.048,31.791 0.051,63.582 -0.025,95.373 C 1.384,-1.975 0.482,-0.988 0,0"
       style="fill:#0a2e4e;fill-opacity:1;fill-rule:nonzero;stroke:none"
       transform="matrix(1.3333333,0,0,-1.3333333,187.14707,253.73467)"
       clip-path="url(#clipPath4)" />
    <path
       id="path5"
       d="m 0,0 c -1.684,4.308 -0.785,8.485 0.645,12.634 0.237,0.439 0.475,0.878 0.712,1.317 8.101,7.784 16.211,15.558 24.3,23.355 13.401,12.915 26.776,25.856 40.196,38.752 1.438,1.382 1.969,2.584 1.655,4.819 -2.558,18.196 14.502,35.829 32.131,32.739 2.173,-0.381 4.267,-1.223 7.235,-2.099 -2.283,-2.599 -3.989,-4.813 -5.972,-6.741 -3.668,-3.568 -7.46,-7.011 -11.28,-10.418 -1.657,-1.478 -2.295,-2.906 -1.599,-5.232 3.4,-11.353 3.741,-11.796 15.587,-12.729 1.481,-0.117 3.428,0.795 4.549,1.868 4.592,4.395 8.944,9.039 13.393,13.583 0.585,0.596 1.224,1.139 2.077,1.927 2.936,-3.25 3.8,-7.009 3.669,-10.856 -0.543,-15.96 -10.006,-28.135 -28.288,-29.382 -2.486,-0.17 -5.076,-0.435 -7.473,0.054 -4.25,0.868 -6.99,-1.007 -9.82,-3.788 C 64.7,33.083 47.599,16.448 30.446,-0.132 27.865,-2.627 25.154,-5.272 22.001,-6.833 14.464,-10.566 6.458,-8.32 0.601,-1.504 0.401,-1.003 0.2,-0.501 0,0"
       style="fill:#e66f0c;fill-opacity:1;fill-rule:nonzero;stroke:none"
       transform="matrix(1.3333333,0,0,-1.3333333,307.5484,405.67667)"
       clip-path="url(#clipPath6)" />
    <path
       id="path7"
       d="m 0,0 c -3.11,0.76 -2.224,3.223 -2.046,5.193 0.207,2.301 2.002,2.395 3.899,2.423 13.841,0.202 27.681,0.522 41.523,0.688 2.717,0.033 4.729,0.838 5.347,3.569 0.697,3.077 -1.128,4.949 -3.857,5.373 -5.012,0.779 -10.085,1.295 -15.15,1.541 -2.436,0.118 -3.72,0.669 -4.678,3.13 -4.029,10.35 -11.653,17.294 -22.323,19.782 -14.097,3.286 -27.228,0.462 -38.282,-9.367 -7.152,-6.358 -12.3,-14.117 -14.051,-23.675 -0.433,-2.367 0.332,-4.974 0.672,-7.454 0.185,-1.342 1.015,-2.682 0.902,-3.966 -0.651,-7.373 1.868,-13.713 6.032,-19.554 4.844,-6.794 4.205,-14.145 1.625,-21.335 -1.623,-4.522 -1.388,-7.594 2.365,-11.081 3.946,-3.666 6.964,-8.349 10.246,-12.695 0.606,-0.803 0.653,-2.108 0.717,-3.196 0.02,-0.345 -0.743,-0.736 -1.148,-1.106 -0.34,0.453 -0.681,0.906 -1.022,1.358 -0.114,1.33 0.272,3.063 -0.423,3.923 -3.75,4.643 -7.642,9.191 -11.755,13.514 -1.661,1.745 -2.423,3.056 -1.455,5.498 1.141,2.873 2.02,5.941 2.414,9.001 0.798,6.177 0.289,12.024 -3.809,17.388 -3.964,5.188 -5.355,11.428 -5.178,18.029 0.041,1.528 -1.086,3.055 -1.434,4.636 -0.361,1.64 -0.821,3.408 -0.568,5.014 3.979,25.167 28.946,42.352 53.722,36.594 11.055,-2.569 19.278,-9.303 23.626,-20.073 0.891,-2.208 1.975,-2.947 4.342,-2.969 4.11,-0.038 8.292,-0.194 12.292,-1.029 2.489,-0.52 5.461,-1.823 6.871,-3.756 C 52.224,11.549 48.804,6.782 43.498,6.719 30.25,6.562 17.001,6.486 3.752,6.381 2.289,6.37 0.825,6.38 -1.02,6.38 -0.617,3.979 -0.311,2.158 -0.005,0.337 -0.005,0.337 0,0 0,0"
       style="fill:#1e304b;fill-opacity:1;fill-rule:nonzero;stroke:none"
       transform="matrix(1.3333333,0,0,-1.3333333,339.02293,229.89267)"
       clip-path="url(#clipPath8)" />
    <path
       id="path9"
       d="m 0,0 c -4.585,2.663 -9.527,4.869 -13.661,8.107 -4.894,3.832 -8.704,4.037 -14.261,0.702 -14.547,-8.73 -22.345,-21.075 -23.264,-37.921 -0.155,-2.843 -0.762,-5.695 -0.581,-8.505 0.067,-1.04 1.793,-2.817 2.776,-2.827 17.093,-0.175 34.189,-0.2 51.281,-0.002 1.532,0.018 3.017,1.836 4.572,2.736 1.114,0.645 2.308,1.153 3.466,1.721 -3.158,-4.283 -7.05,-6.083 -12.696,-5.919 -15.592,0.452 -31.206,0.159 -46.811,0.16 -1.218,0 -2.436,0 -3.631,0 -1.277,25.754 5.14,40.142 25.425,52.314 4.724,2.834 8.317,3.556 12.829,-0.294 C -10.057,6.434 -4.88,3.391 0,0"
       style="fill:#1e304b;fill-opacity:1;fill-rule:nonzero;stroke:none"
       transform="matrix(1.3333333,0,0,-1.3333333,299.28173,323.67547)"
       clip-path="url(#clipPath10)" />
    <path
       id="path11"
       d="m 0,0 c -0.519,0.946 -1.489,1.891 -1.491,2.839 -0.078,36.081 -0.078,72.163 -0.004,108.245 0.002,0.964 0.94,1.927 1.442,2.89 C -0.035,75.983 -0.018,37.991 0,0"
       style="fill:#051634;fill-opacity:1;fill-rule:nonzero;stroke:none"
       transform="matrix(1.3333333,0,0,-1.3333333,208.15707,384.72613)"
       clip-path="url(#clipPath12)" />
    <path
       id="path13"
       d="m 0,0 c 0.482,-0.988 1.384,-1.975 1.386,-2.964 0.076,-31.791 0.073,-63.582 0.025,-95.373 -0.001,-1.01 -0.599,-2.019 -0.919,-3.028 -0.101,1.355 -0.289,2.71 -0.29,4.064 -0.018,31.19 -0.014,62.38 -0.026,93.57 C 0.175,-2.487 0.061,-1.243 0,0"
       style="fill:#02163a;fill-opacity:1;fill-rule:nonzero;stroke:none"
       transform="matrix(1.3333333,0,0,-1.3333333,187.14707,253.73467)"
       clip-path="url(#clipPath14)" />
    <path
       id="path15"
       d="m 0,0 c -2.944,-1.154 -5.875,-3.267 -8.834,-3.307 -21.066,-0.29 -42.137,-0.157 -63.206,-0.141 -0.195,0 -0.39,0.234 -0.132,0.069 4.595,4.969 9.266,10.019 13.937,15.07 0.018,-0.266 0.035,-0.531 0.052,-0.797 -3.758,-3.98 -7.516,-7.961 -11.274,-11.941 0.177,-0.281 0.353,-0.562 0.53,-0.843 1.344,0 2.687,0 4.031,0 16.619,-0.001 33.237,0.058 49.855,-0.037 5.02,-0.029 9.965,-0.019 14.58,2.308 C -0.314,0.246 -0.161,0.119 0,0"
       style="fill:#25354c;fill-opacity:1;fill-rule:nonzero;stroke:none"
       transform="matrix(1.3333333,0,0,-1.3333333,456.6876,403.25813)"
       clip-path="url(#clipPath16)" />
    <path
       id="path17"
       d="m 0,0 c 0.2,-0.501 0.401,-1.003 0.601,-1.504 -24.907,-0.042 -49.815,-0.163 -74.722,-0.075 -7.084,0.025 -12.52,4.191 -14.764,10.508 1.547,-1.668 2.827,-3.784 4.702,-4.902 2.897,-1.726 6.188,-3.89 9.335,-3.926 C -49.902,-0.192 -24.95,-0.026 0,0"
       style="fill:#25354c;fill-opacity:1;fill-rule:nonzero;stroke:none"
       transform="matrix(1.3333333,0,0,-1.3333333,307.5484,405.67667)"
       clip-path="url(#clipPath18)" />
    <path
       id="path19"
       d="m 0,0 c -0.237,-0.439 -0.475,-0.878 -0.712,-1.317 -23.241,0.02 -46.484,0.015 -69.725,0.126 -1.341,0.006 -2.677,0.948 -4.016,1.454 C -50.876,0.236 -27.299,0.211 -3.722,0.174 -2.481,0.172 -1.241,0.06 0,0"
       style="fill:#071d33;fill-opacity:1;fill-rule:nonzero;stroke:none"
       transform="matrix(1.3333333,0,0,-1.3333333,309.35773,387.0748)"
       clip-path="url(#clipPath20)" />
    <path
       id="path21"
       d="m 0,0 c 2.458,0.476 2.971,2.064 2.94,4.385 -0.112,8.371 0.065,16.747 -0.093,25.116 -0.045,2.43 0.68,3.448 3.033,4.127 3.573,1.032 6.977,2.636 10.492,3.887 0.44,0.156 1.119,-0.356 1.687,-0.559 C 17.519,36.477 16.98,35.997 16.441,35.517 13.52,34.558 10.641,33.419 7.662,32.695 5.099,32.072 4.374,30.717 4.418,28.192 4.557,20.36 4.486,12.524 4.458,4.689 4.45,2.415 4.378,0.103 1.465,-0.544 0.976,-0.363 0.488,-0.181 0,0"
       style="fill:#25354c;fill-opacity:1;fill-rule:nonzero;stroke:none"
       transform="matrix(1.3333333,0,0,-1.3333333,440.08987,387.05013)"
       clip-path="url(#clipPath22)" />
    <path
       id="path23"
       d="m 0,0 c 0.955,1.46 1.69,3.143 2.906,4.337 3.604,3.541 7.398,6.888 11.952,11.078 -5.356,3.155 -10.095,5.884 -14.755,8.744 -0.987,0.606 -1.682,1.689 -2.512,2.552 6.135,-3.45 12.27,-6.9 19.236,-10.817 C 10.599,10.011 5.3,5.006 0,0"
       style="fill:#34415a;fill-opacity:1;fill-rule:nonzero;stroke:none"
       transform="matrix(1.3333333,0,0,-1.3333333,341.52133,344.1276)"
       clip-path="url(#clipPath24)" />
    <path
       id="path25"
       d="m 0,0 c 0.488,-0.181 0.976,-0.363 1.465,-0.544 -1.293,-0.244 -2.586,-0.695 -3.88,-0.699 -14.439,-0.046 -28.879,-0.023 -43.319,-0.019 -0.018,0.266 -0.035,0.531 -0.053,0.797 2.764,0.151 5.528,0.303 8.292,0.455 0.491,-10e-4 0.983,-10e-4 1.474,-0.002 C -24.014,-0.008 -12.007,-0.004 0,0"
       style="fill:#071d33;fill-opacity:1;fill-rule:nonzero;stroke:none"
       transform="matrix(1.3333333,0,0,-1.3333333,440.08987,387.05013)"
       clip-path="url(#clipPath26)" />
    <path
       id="path27"
       d="m 0,0 c 0.539,0.48 1.079,0.959 1.618,1.439 0.04,-12.93 0.171,-25.86 0.02,-38.787 -0.023,-1.885 -1.393,-3.753 -2.139,-5.629 0,0 -0.227,0.199 -0.227,0.199 0.259,1.829 0.734,3.658 0.742,5.489 C 0.064,-24.86 0.016,-12.43 0,0"
       style="fill:#051d3e;fill-opacity:1;fill-rule:nonzero;stroke:none"
       transform="matrix(1.3333333,0,0,-1.3333333,462.01027,339.69293)"
       clip-path="url(#clipPath28)" />
    <path
       id="path29"
       d="m 0,0 c -1.574,6.6 -3.177,13.193 -4.702,19.804 -0.355,1.539 -0.443,3.138 -0.654,4.71 2.029,-6.893 4.134,-13.765 6.009,-20.7 C 0.958,2.684 0.243,1.278 0,0"
       style="fill:#0c2141;fill-opacity:1;fill-rule:nonzero;stroke:none"
       transform="matrix(1.3333333,0,0,-1.3333333,379.48787,263.14013)"
       clip-path="url(#clipPath30)" />
    <path
       id="path31"
       d="m 0,0 c 0,0 -0.005,0.337 -0.005,0.337 6.269,0.138 12.538,0.277 18.807,0.415 0.995,0.023 1.989,0.046 2.983,0.07 1.083,-0.428 2.166,-0.856 3.249,-1.284 C 19.492,-0.524 13.949,-0.546 8.409,-0.671 6.461,-0.715 4.517,-1.158 2.575,-1.132 1.712,-1.121 0.858,-0.399 0,0"
       style="fill:#0c2141;fill-opacity:1;fill-rule:nonzero;stroke:none"
       transform="matrix(1.3333333,0,0,-1.3333333,339.02293,229.89267)"
       clip-path="url(#clipPath32)" />
    <path
       id="path33"
       d="m 0,0 c 1.288,0.26 2.567,0.683 3.864,0.748 3.097,0.156 6.343,-0.402 9.263,0.355 2.847,0.739 5.363,2.753 8.024,4.207 0.255,0.007 0.51,0.014 0.765,0.02 C 19.958,1.282 16.403,-0.219 12.238,-0.412 9.151,-0.556 6.044,-0.244 2.946,-0.241 2.05,-0.239 1.155,-0.603 0.259,-0.799 0.173,-0.533 0.086,-0.267 0,0"
       style="fill:#34415a;fill-opacity:1;fill-rule:nonzero;stroke:none"
       transform="matrix(1.3333333,0,0,-1.3333333,337.84813,293.8568)"
       clip-path="url(#clipPath34)" />
    <path
       id="path35"
       d="M 0,0 C 0.216,3.822 0.432,7.644 0.648,11.466 2.8,11.387 4.952,11.308 7.104,11.228 5.112,10.874 3.119,10.519 1.036,10.149 0.693,6.782 0.346,3.391 0,0"
       style="fill:#34415a;fill-opacity:1;fill-rule:nonzero;stroke:none"
       transform="matrix(1.3333333,0,0,-1.3333333,369.2084,279.0324)"
       clip-path="url(#clipPath36)" />
    <path
       id="path37"
       d="M 0,0 C -3.072,1.414 -1.617,3.434 -0.721,5.376 -0.508,5.258 -0.28,5.188 -0.037,5.162 -0.025,3.441 -0.012,1.721 0,0"
       style="fill:#02163a;fill-opacity:1;fill-rule:nonzero;stroke:none"
       transform="matrix(1.3333333,0,0,-1.3333333,338.2584,308.6592)"
       clip-path="url(#clipPath38)" />
    <path
       id="path39"
       d="m 0,0 c -2.152,0.079 -4.303,0.159 -6.455,0.238 2.352,0.143 4.704,0.287 7.057,0.43 C 0.402,0.445 0.201,0.223 0,0"
       style="fill:#0c2141;fill-opacity:1;fill-rule:nonzero;stroke:none"
       transform="matrix(1.3333333,0,0,-1.3333333,378.68013,264.06133)"
       clip-path="url(#clipPath40)" />
    <path
       id="path41"
       d="M 0,0 C -0.994,-0.023 -1.988,-0.047 -2.983,-0.07 -1.988,-0.047 -0.994,-0.023 0,0"
       style="fill:#626a7b;fill-opacity:1;fill-rule:nonzero;stroke:none"
       transform="matrix(1.3333333,0,0,-1.3333333,368.06933,228.7968)"
       clip-path="url(#clipPath42)" />
    <path
       id="path43"
       d="M 0,0 C -0.242,0.026 -0.471,0.097 -0.684,0.214 -0.719,0.816 -0.756,1.416 -0.793,2.018 -0.53,2.111 -0.267,2.201 -0.004,2.292 -0.003,1.528 -0.001,0.764 0,0"
       style="fill:#34415a;fill-opacity:1;fill-rule:nonzero;stroke:none"
       transform="matrix(1.3333333,0,0,-1.3333333,338.20867,301.77707)"
       clip-path="url(#clipPath44)" />
    <path
       id="path45"
       d="M 0,0 C 0.301,1.096 0.602,2.192 0.902,3.288 0.602,2.192 0.301,1.096 0,0"
       style="fill:#0c2141;fill-opacity:1;fill-rule:nonzero;stroke:none"
       transform="matrix(1.3333333,0,0,-1.3333333,367.83613,285.12613)"
       clip-path="url(#clipPath46)" />
    <path
       id="path47"
       d="m 0,0 c -0.263,-0.09 -0.526,-0.18 -0.789,-0.273 0.175,1.306 0.35,2.614 0.524,3.922 0.085,-0.267 0.171,-0.533 0.258,-0.8 C -0.005,1.9 -0.002,0.95 0,0"
       style="fill:#02163a;fill-opacity:1;fill-rule:nonzero;stroke:none"
       transform="matrix(1.3333333,0,0,-1.3333333,338.2032,298.72173)"
       clip-path="url(#clipPath48)" />
    <path
       id="path49"
       d="m 0,0 c -0.315,-0.69 -0.63,-1.379 -0.945,-2.069 -0.254,0.004 -0.507,0.007 -0.76,0.011 0.493,0.752 0.986,1.505 1.478,2.257 z"
       style="fill:#051d3e;fill-opacity:1;fill-rule:nonzero;stroke:none"
       transform="matrix(1.3333333,0,0,-1.3333333,461.34227,396.996)"
       clip-path="url(#clipPath50)" />
    <path
       id="path51"
       d="M 0,0 C -0.255,-0.007 -0.51,-0.013 -0.765,-0.02 -0.354,0.297 0.058,0.614 0.469,0.93 0.313,0.62 0.157,0.31 0,0"
       style="fill:#0c2141;fill-opacity:1;fill-rule:nonzero;stroke:none"
       transform="matrix(1.3333333,0,0,-1.3333333,367.0696,286.7496)"
       clip-path="url(#clipPath52)" />
    <path
       id="path53"
       d="M 0,0 C -0.491,0.001 -0.983,0.002 -1.474,0.002 -0.983,0.002 -0.491,0.001 0,0"
       style="fill:#25354c;fill-opacity:1;fill-rule:nonzero;stroke:none"
       transform="matrix(1.3333333,0,0,-1.3333333,392.06173,387.06653)"
       clip-path="url(#clipPath54)" />
    <path
       id="path55"
       d="M 0,0 C 0.253,-0.004 0.507,-0.007 0.76,-0.011 0.381,-0.457 0.002,-0.903 -0.377,-1.349 -0.478,-1.138 -0.602,-0.94 -0.748,-0.757 -0.499,-0.505 -0.249,-0.252 0,0"
       style="fill:#25354c;fill-opacity:1;fill-rule:nonzero;stroke:none"
       transform="matrix(1.3333333,0,0,-1.3333333,459.06893,399.74)"
       clip-path="url(#clipPath56)" />
    <path
       id="path57"
       d="M 0,0 C 0.283,0.282 0.566,0.564 0.849,0.845 0.566,0.564 0.283,0.282 0,0"
       style="fill:#34415a;fill-opacity:1;fill-rule:nonzero;stroke:none"
       transform="matrix(1.3333333,0,0,-1.3333333,338.2972,347.2196)"
       clip-path="url(#clipPath58)" />
    <path
       id="path59"
       d="M 0,0 C 0.246,0.223 0.492,0.445 0.738,0.668 0.492,0.445 0.246,0.223 0,0"
       style="fill:#34415a;fill-opacity:1;fill-rule:nonzero;stroke:none"
       transform="matrix(1.3333333,0,0,-1.3333333,340.4536,345.088)"
       clip-path="url(#clipPath60)" />
    <path
       id="path61"
       d="M 0,0 C 0.243,0.24 0.486,0.481 0.729,0.721 0.486,0.481 0.243,0.24 0,0"
       style="fill:#34415a;fill-opacity:1;fill-rule:nonzero;stroke:none"
       transform="matrix(1.3333333,0,0,-1.3333333,339.44573,346.0832)"
       clip-path="url(#clipPath62)" />
    <path
       id="path63"
       d="m 0,0 c -0.257,-0.251 -0.515,-0.501 -0.772,-0.752 -0.089,0.214 -0.206,0.412 -0.349,0.594 0.25,0.25 0.5,0.5 0.75,0.75 C -0.225,0.409 -0.101,0.211 0,0"
       style="fill:#25354c;fill-opacity:1;fill-rule:nonzero;stroke:none"
       transform="matrix(1.3333333,0,0,-1.3333333,458.566,401.5388)"
       clip-path="url(#clipPath64)" />
    <path
       id="path65"
       d="m 0,0 c -0.212,-0.179 -0.425,-0.358 -0.637,-0.537 -0.16,0.118 -0.314,0.246 -0.461,0.381 0.25,0.25 0.499,0.5 0.749,0.75 C -0.206,0.412 -0.09,0.214 0,0"
       style="fill:#25354c;fill-opacity:1;fill-rule:nonzero;stroke:none"
       transform="matrix(1.3333333,0,0,-1.3333333,457.5368,402.5416)"
       clip-path="url(#clipPath66)" />
    <path
       id="path67"
       d="m 0,0 c -0.25,-0.25 -0.499,-0.5 -0.749,-0.75 -4.615,-2.328 -9.56,-2.337 -14.58,-2.309 -16.618,0.096 -33.236,0.037 -49.855,0.037 -1.344,0 -2.687,0 -4.031,0 -0.177,0.281 -0.353,0.562 -0.53,0.843 3.758,3.981 7.516,7.961 11.275,11.941 14.44,-0.004 28.88,-0.027 43.319,0.019 1.294,0.004 2.587,0.456 3.88,0.699 2.913,0.647 2.985,2.959 2.993,5.234 0.028,7.834 0.099,15.67 -0.04,23.502 -0.044,2.525 0.681,3.881 3.244,4.504 2.979,0.724 5.857,1.862 8.779,2.822 C 3.72,34.112 3.768,21.682 3.718,9.253 3.71,7.422 3.235,5.594 2.977,3.764 2.484,3.011 1.991,2.259 1.498,1.507 1.249,1.254 1,1.002 0.75,0.75 0.5,0.5 0.25,0.25 0,0"
       style="fill:#092e4d;fill-opacity:1;fill-rule:nonzero;stroke:none"
       transform="matrix(1.3333333,0,0,-1.3333333,457.07133,401.74907)"
       clip-path="url(#clipPath68)" />
  </g>
</svg>
