<svg version="1.2" xmlns="http://www.w3.org/2000/svg" viewBox="586.491190833953 0.10139493025394586 492.581070946453 418.4790760461981" width="494" height="419">
	<title>MyHomeTech - Logo</title>
	<style>
		.s0 { fill: #062c4c } 
		.s1 { fill: #0a2e4e } 
		.s2 { fill: #e66f0c } 
		.s3 { fill: #1e304b } 
		.s4 { fill: #051634 } 
		.s5 { fill: #02163a } 
		.s6 { fill: #25354c } 
		.s7 { fill: #071d33 } 
		.s8 { fill: #34415a } 
		.s9 { fill: #051d3e } 
		.s10 { fill: #0c2141 } 
		.s11 { fill: #626a7b } 
		.s12 { fill: #092e4d } 
	</style>
	<g id="Layer 1">
		<g id="Logo 1 ">
			<path id="&lt;Path&gt;" class="s0" d="m860.7 322.2q-16.6 16.1-33.2 32.1c-2 1-4.1 1.9-6 3.1-2.7 1.5-5.4 4.7-8 4.7-30 0.4-59.9 0.4-89.9 0-1.7 0-4.7-3.1-4.9-4.9-0.3-4.9 0.8-9.9 1.1-14.9 1.6-29.5 15.2-51.2 40.7-66.5 9.8-5.8 16.4-5.4 25 1.3 7.3 5.6 15.9 9.5 24 14.2q0.5-0.1 1 0 0.9 1.2 1.8 2.4c0.7-0.6 2-1.3 2-1.9-0.1-1.9-0.2-4.2-1.3-5.6-5.7-7.6-11-15.8-17.9-22.3-6.6-6.1-7-11.5-4.2-19.4 4.5-12.6 5.7-25.5-2.8-37.4-7.3-10.2-11.7-21.3-10.6-34.2 0.2-2.3-1.3-4.6-1.6-7-0.6-4.3-1.9-8.9-1.2-13 3.1-16.8 12.1-30.4 24.7-41.5 19.3-17.2 42.3-22.2 67-16.4 18.7 4.3 32.1 16.5 39.1 34.6 1.7 4.3 4 5.3 8.2 5.5 8.9 0.4 17.8 1.4 26.6 2.7 4.8 0.8 8 4 6.8 9.4-1.1 4.8-4.7 6.2-9.4 6.3-24.3 0.3-48.5 0.8-72.8 1.2-3.3 0-6.4 0.2-6.8 4.2-0.3 3.5-1.9 7.8 3.6 9.1 1.5 0.7 3 2 4.5 2 3.4 0.1 6.8-0.7 10.2-0.8 9.7-0.2 19.4-0.2 29.1-0.4 0.3 2.7 0.5 5.5 1.1 8.2 2.7 11.6 5.5 23.2 8.3 34.7h-0.5c0 0 0.4 0.1 0.4 0.1q-6.1 0.3-12.3 0.7-0.6 10.1-1.2 20.1-0.1 1.1-0.2 2.3-0.8 2.8-1.6 5.7c0 0-0.1 0.5-0.1 0.5q-1.1 0.9-2.2 1.7c-4.7 2.5-9.1 6.1-14.1 7.4-5.1 1.3-10.8 0.3-16.2 0.6-2.3 0.1-4.5 0.8-6.8 1.3q-0.4 3.4-0.9 6.9 0.1 1.5 0.2 3.1c-1.6 3.4-4.1 7 1.3 9.4v-0.1c1.5 1.5 2.7 3.4 4.4 4.4 8.2 5 16.5 9.8 25.9 15.3-8 7.4-14.6 13.3-20.9 19.5-2.2 2.1-3.5 5-5.1 7.6l-0.1 0.1q-0.7 0.5-1.3 1.1l-0.4-0.3 0.3 0.4q-0.6 0.6-1.3 1.2l-0.3-0.4c0 0 0.3 0.4 0.3 0.4q-0.7 0.8-1.5 1.5z"/>
			<path id="&lt;Path&gt;" class="s1" d="m662.1 199.4c-2.1 0.1-4.6-0.4-6.2 0.5-7.7 4.9-15.7 4-21-2.7-4.9-6.1-3.5-13.5 3.7-19.5q96.3-80.4 192.7-160.7c7.1-5.9 14.6-11.1 24.4-7.7 3.8 1.3 7.5 3.5 10.6 6.1 37.5 31.7 74.8 63.5 112.3 95.2 25.6 21.6 51.5 42.7 76.9 64.6 3.7 3.2 6.3 8.7 7.5 13.7 1.4 5.5-1.1 10.9-6.6 13.8-5.4 2.9-10.8 1.9-15.4-1.7-8.5-6.5-16.8-13.3-25.1-20.2-53.1-44.6-106.2-89.2-159.4-133.9-8.1-6.8-9.1-6.8-17.2-0.1q-73 60.7-145.9 121.4c-1.3 1.1-2.5 2.4-3.8 3.6-0.9 1.7-2.5 3.4-2.5 5.1q-0.2 94.8 0 189.6c0 1.7 1.7 3.4 2.6 5q1.3 1.3 2.5 2.6c2.4 0.9 4.7 2.6 7.1 2.6 40.7 0.2 81.4 0.2 122.1 0.2-2.5 7.3-4 14.6-1.1 22.1-43.7 0.1-87.4 0.4-131.1-0.1-5.5-0.1-11.3-3.9-16.4-6.9-3.3-2-5.5-5.7-8.2-8.6q-0.8-3.2-1.6-6.4c0.5-1.8 1.6-3.6 1.6-5.3q0.1-83.6-0.1-167.1c0-1.8-1.6-3.5-2.4-5.2z"/>
			<path id="&lt;Path&gt;" class="s2" d="m820.3 399c-2.9-7.5-1.4-14.8 1.1-22.1q0.7-1.1 1.3-2.3c14.2-13.6 28.4-27.3 42.6-40.9 23.5-22.7 46.9-45.3 70.4-67.9 2.5-2.4 3.5-4.6 2.9-8.5-4.5-31.9 25.4-62.7 56.3-57.3 3.8 0.6 7.5 2.1 12.7 3.6-4 4.6-7 8.5-10.5 11.9-6.4 6.2-13.1 12.2-19.7 18.2-3 2.6-4.1 5.1-2.9 9.2 6 19.9 6.6 20.6 27.4 22.3 2.6 0.2 6-1.4 7.9-3.3 8.1-7.7 15.7-15.8 23.5-23.8 1-1 2.1-2 3.6-3.4 5.2 5.7 6.7 12.3 6.5 19.1-1 27.9-17.6 49.2-49.6 51.4-4.4 0.3-8.9 0.8-13.1-0.1-7.4-1.5-12.2 1.8-17.2 6.7-29.8 29.3-59.8 58.4-89.8 87.5-4.6 4.3-9.3 9-14.8 11.7-13.2 6.6-27.3 2.6-37.5-9.3q-0.6-1.3-1.1-2.7z"/>
			<path id="&lt;Path&gt;" class="s3" d="m861.7 168c-5.5-1.3-3.9-5.6-3.6-9.1 0.4-4 3.5-4.2 6.8-4.2 24.3-0.4 48.5-0.9 72.8-1.2 4.7-0.1 8.3-1.5 9.4-6.3 1.2-5.4-2-8.6-6.8-9.4-8.8-1.3-17.7-2.3-26.6-2.7-4.2-0.2-6.5-1.2-8.2-5.5-7-18.1-20.4-30.3-39.1-34.6-24.7-5.8-47.7-0.8-67 16.4-12.6 11.1-21.6 24.7-24.7 41.5-0.7 4.1 0.6 8.7 1.2 13 0.3 2.4 1.8 4.7 1.6 7-1.1 12.9 3.3 24 10.6 34.2 8.5 11.9 7.3 24.8 2.8 37.4-2.8 7.9-2.4 13.3 4.2 19.4 6.9 6.5 12.2 14.7 17.9 22.3 1.1 1.4 1.2 3.7 1.3 5.6 0 0.6-1.3 1.3-2 1.9q-0.9-1.2-1.8-2.4c-0.2-2.3 0.4-5.3-0.8-6.8-6.5-8.2-13.4-16.1-20.6-23.7-2.9-3.1-4.2-5.4-2.5-9.6 2-5.1 3.5-10.5 4.2-15.8 1.4-10.8 0.5-21.1-6.7-30.5-6.9-9.1-9.4-20-9-31.6 0-2.7-1.9-5.3-2.6-8.1-0.6-2.9-1.4-6-0.9-8.8 6.9-44.1 50.7-74.2 94.1-64.1 19.4 4.5 33.8 16.3 41.4 35.2 1.5 3.8 3.4 5.1 7.6 5.2 7.2 0 14.5 0.3 21.5 1.8 4.4 0.9 9.6 3.2 12.1 6.6 4.9 6.7-1.1 15.1-10.4 15.2-23.2 0.2-46.4 0.4-69.6 0.6-2.6 0-5.2 0-8.4 0 0.7 4.2 1.2 7.4 1.8 10.5z"/>
			<path id="&lt;Path&gt;" class="s3" d="m809.5 291.3c-8.1-4.7-16.7-8.6-24-14.2-8.6-6.7-15.2-7.1-25-1.3-25.5 15.3-39.1 37-40.7 66.5-0.3 5-1.4 10-1.1 14.9 0.2 1.8 3.2 4.9 4.9 4.9 30 0.4 59.9 0.4 89.9 0 2.6 0 5.3-3.2 8-4.7 1.9-1.2 4-2.1 6-3.1-5.5 7.5-12.3 10.7-22.2 10.4-27.3-0.8-54.7-0.3-82-0.3q-3.2 0-6.4 0c-2.2-45.1 9-70.3 44.6-91.6 8.2-5 14.5-6.3 22.4 0.5 7.9 6.7 17 12 25.6 18z"/>
			<path id="&lt;Path&gt;" class="s4" d="m689.7 371.5c-0.9-1.6-2.6-3.3-2.6-5q-0.2-94.8 0-189.6c0-1.7 1.6-3.4 2.5-5.1q0.1 99.9 0.1 199.7z"/>
			<path id="&lt;Path&gt;" class="s5" d="m662.1 199.4c0.8 1.7 2.4 3.4 2.4 5.2q0.2 83.5 0.1 167.1c0 1.7-1.1 3.5-1.6 5.3-0.2-2.4-0.6-4.8-0.6-7.1 0-54.7 0-109.3 0-164 0-2.2-0.2-4.4-0.3-6.5z"/>
			<path id="&lt;Path&gt;" class="s6" d="m1016.3 395.9c-5.2 2-10.3 5.7-15.5 5.8-36.9 0.5-73.8 0.2-110.7 0.2-0.4 0-0.7-0.4-0.3-0.1 8.1-8.7 16.3-17.6 24.5-26.4q0 0.7 0.1 1.4-9.9 10.4-19.8 20.9 0.5 0.7 0.9 1.5 3.6 0 7.1 0c29.1 0 58.2-0.1 87.4 0 8.7 0.1 17.4 0.1 25.5-4q0.4 0.4 0.8 0.7z"/>
			<path id="&lt;Path&gt;" class="s6" d="m820.3 399q0.5 1.4 1.1 2.7c-43.7 0.1-87.3 0.3-131 0.1-12.4 0-21.9-7.3-25.8-18.4 2.7 2.9 4.9 6.6 8.2 8.6 5.1 3 10.9 6.8 16.4 6.9 43.7 0.5 87.4 0.2 131.1 0.1z"/>
			<path id="&lt;Path&gt;" class="s7" d="m822.7 374.6q-0.6 1.2-1.3 2.3c-40.7 0-81.4 0-122.1-0.2-2.4 0-4.7-1.7-7.1-2.6q62 0.1 124 0.2c2.1 0 4.3 0.2 6.5 0.3z"/>
			<path id="&lt;Path&gt;" class="s6" d="m994.5 374.6c4.3-0.9 5.2-3.7 5.1-7.7-0.2-14.7 0.2-29.4-0.1-44-0.1-4.3 1.2-6.1 5.3-7.3 6.3-1.8 12.2-4.6 18.4-6.8 0.8-0.2 1.9 0.7 2.9 1q-1.4 1.3-2.8 2.5c-5.1 1.7-10.2 3.7-15.4 5-4.5 1.1-5.7 3.4-5.7 7.9 0.3 13.7 0.2 27.4 0.1 41.1 0 4-0.1 8.1-5.2 9.2q-1.3-0.5-2.6-0.9z"/>
			<path id="&lt;Path&gt;" class="s8" d="m865 318.2c1.6-2.6 2.9-5.5 5.1-7.6 6.3-6.2 12.9-12.1 20.9-19.5-9.4-5.5-17.7-10.3-25.9-15.3-1.7-1-2.9-2.9-4.4-4.4 10.8 6 21.5 12 33.7 18.9-10.9 10.3-20.2 19.1-29.4 27.9z"/>
			<path id="&lt;Path&gt;" class="s7" d="m994.5 374.6q1.3 0.4 2.6 0.9c-2.3 0.4-4.6 1.2-6.8 1.2-25.3 0.1-50.6 0.1-75.9 0.1q-0.1-0.7-0.1-1.4 7.2-0.4 14.5-0.8 1.3 0 2.6 0 31.5 0 63.1 0z"/>
			<path id="&lt;Path&gt;" class="s9" d="m1023.3 312.3q1.4-1.2 2.8-2.5c0.1 22.7 0.3 45.3 0.1 68-0.1 3.3-2.5 6.5-3.8 9.8 0 0-0.4-0.3-0.4-0.3 0.5-3.2 1.3-6.4 1.3-9.6 0.1-21.8 0-43.6 0-65.4z"/>
			<path id="&lt;Path&gt;" class="s10" d="m914.9 211.7c-2.8-11.5-5.6-23.1-8.3-34.7-0.6-2.7-0.8-5.5-1.1-8.2 3.5 12.1 7.2 24.1 10.5 36.2 0.5 2-0.7 4.5-1.1 6.7z"/>
			<path id="&lt;Path&gt;" class="s10" d="m861.7 168v-0.6q16.4-0.3 32.9-0.7 2.6 0 5.2-0.1 2.9 1.1 5.7 2.2c-9.7 0.2-19.4 0.2-29.1 0.4-3.4 0.1-6.8 0.9-10.2 0.8-1.5 0-3-1.3-4.5-2z"/>
			<path id="&lt;Path&gt;" class="s8" d="m860.1 252.1c2.3-0.5 4.5-1.2 6.8-1.3 5.4-0.3 11.1 0.7 16.2-0.6 5-1.3 9.4-4.9 14.1-7.4q0.7 0 1.3 0c-3.4 7-9.6 9.7-16.9 10-5.4 0.3-10.9-0.3-16.3-0.3-1.6 0-3.1 0.7-4.7 1q-0.2-0.7-0.5-1.4z"/>
			<path id="&lt;Path&gt;" class="s8" d="m901.3 232.6q0.6-10 1.2-20.1 5.6 0.2 11.3 0.4c-3.5 0.7-7 1.3-10.6 1.9q-0.9 8.9-1.9 17.8z"/>
			<path id="&lt;Path&gt;" class="s5" d="m860.7 271.5c-5.4-2.4-2.9-6-1.3-9.4q0.6 0.3 1.2 0.4 0 4.5 0.1 9z"/>
			<path id="&lt;Path&gt;" class="s10" d="m913.8 212.9q-5.7-0.2-11.3-0.4 6.2-0.4 12.3-0.7-0.5 0.6-1 1.1z"/>
			<path id="&lt;Path&gt;" class="s11" d="m899.8 166.6q-2.6 0.1-5.2 0.1 2.6 0 5.2-0.1z"/>
			<path id="&lt;Path&gt;" class="s8" d="m860.6 262.5q-0.6-0.1-1.2-0.4-0.1-1.6-0.2-3.1 0.7-0.3 1.4-0.5 0 2 0 4z"/>
			<path id="&lt;Path&gt;" class="s10" d="m899.5 240.6q0.8-2.9 1.6-5.7-0.8 2.8-1.6 5.7z"/>
			<path id="&lt;Path&gt;" class="s5" d="m860.6 258.5q-0.7 0.2-1.4 0.5 0.5-3.5 0.9-6.9 0.3 0.7 0.5 1.4 0 2.5 0 5z"/>
			<path id="&lt;Path&gt;" class="s9" d="m1022.4 387.6q-0.8 1.8-1.6 3.7-0.7 0-1.4-0.1 1.3-1.9 2.6-3.9z"/>
			<path id="&lt;Path&gt;" class="s10" d="m898.5 242.8q-0.6 0-1.3 0 1.1-0.8 2.2-1.7-0.5 0.8-0.9 1.7z"/>
			<path id="&lt;Path&gt;" class="s6" d="m931.4 374.6q-1.3 0-2.6 0 1.3 0 2.6 0z"/>
			<path id="&lt;Path&gt;" class="s6" d="m1019.4 391.2q0.7 0.1 1.4 0.1-1 1.1-2 2.3-0.3-0.6-0.7-1 0.7-0.7 1.3-1.4z"/>
			<path id="&lt;Path&gt;" class="s8" d="m860.7 322.2q0.8-0.7 1.5-1.5-0.7 0.8-1.5 1.5z"/>
			<path id="&lt;Path&gt;" class="s8" d="m863.6 319.4q0.6-0.6 1.3-1.1-0.7 0.5-1.3 1.1z"/>
			<path id="&lt;Path&gt;" class="s8" d="m862.2 320.7q0.7-0.6 1.3-1.2-0.6 0.6-1.3 1.2z"/>
			<path id="&lt;Path&gt;" class="s6" d="m1018.8 393.6q-0.7 0.7-1.4 1.3-0.2-0.5-0.6-1 0.7-0.7 1.3-1.3 0.4 0.4 0.7 1z"/>
			<path id="&lt;Path&gt;" class="s6" d="m1017.4 394.9q-0.5 0.5-1.1 1-0.4-0.3-0.8-0.7 0.7-0.7 1.3-1.3 0.4 0.5 0.6 1z"/>
			<path id="&lt;Path&gt;" class="s12" d="m1016.8 393.9q-0.6 0.6-1.3 1.3c-8.1 4.1-16.8 4.1-25.5 4-29.2-0.1-58.3 0-87.4 0q-3.5 0-7.1 0-0.4-0.8-0.9-1.5 9.9-10.5 19.8-20.9c25.3 0 50.6 0 75.9-0.1 2.2 0 4.5-0.8 6.8-1.2 5.1-1.1 5.2-5.2 5.2-9.2 0.1-13.7 0.2-27.4-0.1-41.1 0-4.5 1.2-6.8 5.7-7.9 5.2-1.3 10.3-3.3 15.4-5 0 21.8 0.1 43.6 0 65.4 0 3.2-0.8 6.4-1.3 9.6q-1.3 2-2.6 3.9-0.6 0.7-1.3 1.4-0.6 0.6-1.3 1.3z"/>
		</g>
	</g>
</svg>